<svg width="113" height="17" viewBox="0 0 113 17" fill="none" xmlns="http://www.w3.org/2000/svg">
<path d="M0.968 1.12H5.984L7.808 8.8H7.952L9.776 1.12H14.792L15.368 16H11.744L11.48 8.8L11.576 4.792L11.36 4.744L9.224 12.424H6.536L4.4 4.744L4.184 4.792L4.28 8.8L4.016 16H0.392L0.968 1.12ZM23.6296 16.144C21.7256 16.144 20.2616 15.664 19.2376 14.704C18.2296 13.744 17.7256 12.328 17.7256 10.456C17.7256 8.488 18.2136 6.992 19.1896 5.968C20.1656 4.944 21.5736 4.432 23.4136 4.432C25.0456 4.432 26.3016 4.864 27.1816 5.728C28.0776 6.576 28.5256 7.744 28.5256 9.232C28.5256 9.472 28.5176 9.656 28.5016 9.784L26.7496 11.512L21.1816 11.464C21.1816 12.024 21.3736 12.448 21.7576 12.736C22.1576 13.008 22.8216 13.144 23.7496 13.144C24.5816 13.144 25.3016 13.064 25.9096 12.904C26.5176 12.728 27.1016 12.48 27.6616 12.16L28.5256 14.896C27.9176 15.296 27.2216 15.608 26.4376 15.832C25.6696 16.04 24.7336 16.144 23.6296 16.144ZM25.1416 9.136C25.1896 8.96 25.2136 8.816 25.2136 8.704C25.2136 8.304 25.0376 7.992 24.6856 7.768C24.3336 7.528 23.8856 7.408 23.3416 7.408C22.5896 7.408 22.0456 7.568 21.7096 7.888C21.3736 8.192 21.1896 8.64 21.1576 9.232L25.1416 9.136ZM36.3813 16.24C35.4213 16.24 34.5653 16.136 33.8133 15.928C33.2533 15.528 32.7893 15.096 32.4213 14.632C32.0693 14.168 31.8933 13.704 31.8933 13.24V7.648H29.6853L30.1173 4.672H31.8933V1.696H35.4693V4.672H39.1893L38.7573 7.648H35.4693V11.656C35.4693 12.088 35.5093 12.448 35.5893 12.736C35.9093 12.832 36.2613 12.88 36.6453 12.88C37.5253 12.88 38.2853 12.696 38.9253 12.328L39.4533 15.472C39.0533 15.728 38.6133 15.92 38.1333 16.048C37.6533 16.176 37.0693 16.24 36.3813 16.24ZM44.0259 16.192C42.8739 16.192 42.0179 15.92 41.4579 15.376C40.9139 14.832 40.6419 14.032 40.6419 12.976C40.6419 10.496 42.4979 9.256 46.2099 9.256C46.5139 9.256 46.9299 9.28 47.4579 9.328V8.272C47.4579 7.856 47.3619 7.584 47.1699 7.456C46.9939 7.312 46.6659 7.24 46.1859 7.24C45.7539 7.24 45.3699 7.272 45.0339 7.336L44.7939 8.488H41.8179C41.6099 7.8 41.5059 7.08 41.5059 6.328V5.728C42.2259 5.344 42.9699 5.048 43.7379 4.84C44.5219 4.632 45.4419 4.528 46.4979 4.528C47.9699 4.528 49.0979 4.824 49.8819 5.416C50.6659 6.008 51.0579 6.888 51.0579 8.056V16H48.0339L47.8179 14.416H47.6259C47.1779 15.024 46.6739 15.472 46.1139 15.76C45.5699 16.048 44.8739 16.192 44.0259 16.192ZM45.2739 13.288C45.7379 13.288 46.1459 13.216 46.4979 13.072C46.8499 12.928 47.1859 12.712 47.5059 12.424V11.584C47.0579 11.504 46.5139 11.464 45.8739 11.464C45.3779 11.464 44.9059 11.52 44.4579 11.632C44.3619 11.856 44.3139 12.128 44.3139 12.448C44.3139 13.008 44.6339 13.288 45.2739 13.288Z" fill="#64A2FF"/>
<path d="M59.3489 16.192C57.0449 16.192 55.0689 15.728 53.4209 14.8L54.5969 11.896C56.0849 12.68 57.7089 13.072 59.4689 13.072C60.3489 13.072 61.0689 13.016 61.6289 12.904C61.7569 12.632 61.8209 12.304 61.8209 11.92C61.8209 11.504 61.6689 11.2 61.3649 11.008C61.0609 10.8 60.4769 10.592 59.6129 10.384C58.3649 10.08 57.3569 9.752 56.5889 9.4C55.8369 9.048 55.2449 8.552 54.8129 7.912C54.3809 7.272 54.1649 6.416 54.1649 5.344C54.1649 3.936 54.6529 2.84 55.6289 2.056C56.6209 1.272 58.0529 0.879999 59.9249 0.879999C60.9809 0.879999 61.9009 0.983999 62.6849 1.192C63.4849 1.4 64.2289 1.672 64.9169 2.008V2.848C64.9169 3.232 64.8689 3.76 64.7729 4.432C64.6929 5.104 64.6049 5.584 64.5089 5.872H61.5329L61.3169 4.12C60.8369 4.04 60.3329 4 59.8049 4C59.1329 4 58.6209 4.088 58.2689 4.264C57.9329 4.44 57.7649 4.76 57.7649 5.224C57.7649 5.688 57.9729 6.04 58.3889 6.28C58.8049 6.504 59.5249 6.728 60.5489 6.952C61.6689 7.192 62.5729 7.48 63.2609 7.816C63.9649 8.152 64.5009 8.64 64.8689 9.28C65.2369 9.904 65.4209 10.728 65.4209 11.752C65.4209 13.16 64.9249 14.256 63.9329 15.04C62.9569 15.808 61.4289 16.192 59.3489 16.192ZM73.3657 16.24C72.4057 16.24 71.5497 16.136 70.7977 15.928C70.2377 15.528 69.7737 15.096 69.4057 14.632C69.0537 14.168 68.8777 13.704 68.8777 13.24V7.648H66.6697L67.1017 4.672H68.8777V1.696H72.4537V4.672H76.1737L75.7417 7.648H72.4537V11.656C72.4537 12.088 72.4937 12.448 72.5737 12.736C72.8937 12.832 73.2457 12.88 73.6297 12.88C74.5097 12.88 75.2697 12.696 75.9097 12.328L76.4377 15.472C76.0377 15.728 75.5977 15.92 75.1177 16.048C74.6377 16.176 74.0537 16.24 73.3657 16.24ZM83.1943 16.216C81.3383 16.216 79.9863 15.728 79.1383 14.752C78.2903 13.776 77.8663 12.384 77.8663 10.576C77.8663 9.392 78.1063 8.336 78.5863 7.408C79.0823 6.48 79.7863 5.752 80.6983 5.224C81.6263 4.696 82.7223 4.432 83.9863 4.432C87.5383 4.432 89.3143 6.336 89.3143 10.144C89.3143 11.984 88.8103 13.456 87.8023 14.56C86.7943 15.664 85.2583 16.216 83.1943 16.216ZM83.6263 13.216C84.2663 13.216 84.8583 13.136 85.4023 12.976C85.6743 12.288 85.8103 11.4 85.8103 10.312C85.8103 9.256 85.6423 8.528 85.3063 8.128C84.9863 7.712 84.4023 7.504 83.5543 7.504C82.9463 7.504 82.3543 7.576 81.7783 7.72C81.5063 8.392 81.3703 9.288 81.3703 10.408C81.3703 11.464 81.5303 12.2 81.8503 12.616C82.1863 13.016 82.7783 13.216 83.6263 13.216ZM91.8016 4.672H95.0416L95.1856 6.976H95.4256C95.8576 6.192 96.3456 5.6 96.8896 5.2C97.4496 4.784 98.1376 4.576 98.9536 4.576C99.0816 4.576 99.2496 4.64 99.4576 4.768C99.6816 4.896 99.8496 5.024 99.9616 5.152L99.6016 8.248H98.5936C97.2176 8.248 96.1376 8.608 95.3536 9.328V16H91.8016V4.672ZM107.302 16.144C105.398 16.144 103.934 15.664 102.91 14.704C101.902 13.744 101.398 12.328 101.398 10.456C101.398 8.488 101.886 6.992 102.862 5.968C103.838 4.944 105.246 4.432 107.086 4.432C108.718 4.432 109.974 4.864 110.854 5.728C111.75 6.576 112.198 7.744 112.198 9.232C112.198 9.472 112.19 9.656 112.174 9.784L110.422 11.512L104.854 11.464C104.854 12.024 105.046 12.448 105.43 12.736C105.83 13.008 106.494 13.144 107.422 13.144C108.254 13.144 108.974 13.064 109.582 12.904C110.19 12.728 110.774 12.48 111.334 12.16L112.198 14.896C111.59 15.296 110.894 15.608 110.11 15.832C109.342 16.04 108.406 16.144 107.302 16.144ZM108.814 9.136C108.862 8.96 108.886 8.816 108.886 8.704C108.886 8.304 108.71 7.992 108.358 7.768C108.006 7.528 107.558 7.408 107.014 7.408C106.262 7.408 105.718 7.568 105.382 7.888C105.046 8.192 104.862 8.64 104.83 9.232L108.814 9.136Z" fill="#A7F4FF"/>
</svg>
